<svg width="16" height="16" viewBox="0 0 16 16" fill="none" xmlns="http://www.w3.org/2000/svg">
<path d="M4.5359 2C6.67949 0.762396 9.32051 0.762396 11.4641 2V2C13.6077 3.2376 14.9282 5.52479 14.9282 8V8C14.9282 10.4752 13.6077 12.7624 11.4641 14V14C9.32051 15.2376 6.67949 15.2376 4.5359 14V14C2.39231 12.7624 1.0718 10.4752 1.0718 8V8C1.0718 5.52479 2.39231 3.2376 4.5359 2V2Z" fill="white"/>
<path d="M14.9283 10.2646V10.3265C14.9283 11.3621 14.3758 12.319 13.479 12.8367L9.44934 15.1633C8.55253 15.681 7.44761 15.681 6.55079 15.1633L2.52114 12.8367C2.45474 12.7984 2.39023 12.7577 2.32769 12.7147L2.02905 11.7102L3.01456 7.88407L3.88413 6.49276L6.43485 9.10146L9.56528 4.46378L14.9283 10.2646Z" fill="#066C61"/>
<path d="M2.10686 12.5468C1.69591 12.202 1.39067 11.7511 1.22183 11.2474L1.21729 11.1884C1.35255 9.68116 1.93613 6.5855 3.1883 6.26087C4.81149 5.84004 5.62308 11.1884 5.62308 11.1884C5.62308 11.1884 6.34429 3.73984 8.5796 3.88406C10.3767 4 11.0724 7.71014 10.6086 14.4928L10.6062 14.4952L9.44917 15.1633C9.05593 15.3903 8.62268 15.5178 8.1845 15.5457C8.99303 14.1383 8.91658 8.58187 8.52163 6.55072C8.2907 7.19022 8.10876 8.17402 7.91243 9.23564C7.46804 11.6385 6.94992 14.4402 5.62308 14.5507C5.57394 14.5548 5.52522 14.5522 5.47695 14.5434L5.038 14.2899C4.20256 13.4808 3.55704 10.9978 3.30424 9.62319C3.25821 10.866 2.78957 12.2878 2.55585 12.8569L2.52097 12.8367C2.49072 12.8193 2.46086 12.8013 2.43141 12.7829L2.10686 12.5468Z" fill="#B3DBC9"/>
</svg>
