<svg xmlns="http://www.w3.org/2000/svg" aria-hidden="true" style="position:absolute;width:0;height:0;overflow:hidden">
  <defs>
    <symbol id="icon-cards" viewBox="0 0 32 32">
      <path d="M0 0h8.727v8.727H0V0zM11.636 0h8.727v8.727h-8.727V0zM23.273 0H32v8.727h-8.727V0zM0 11.636h8.727v8.727H0v-8.727zM0 23.273h8.727V32H0v-8.727zM11.636 11.636h8.727v8.727h-8.727v-8.727zM11.636 23.273h8.727V32h-8.727v-8.727zM23.273 11.636H32v8.727h-8.727v-8.727zM23.273 23.273H32V32h-8.727v-8.727z"/>
    </symbol>
    <symbol id="icon-rows" viewBox="0 0 32 32">
      <path d="M0 1.333h8v8H0v-8zM0 12h8v8H0v-8zM0 22.667h8v8H0v-8zM12 14.667h20v2.667H12v-2.667zM12 25.333h20V28H12v-2.667zM12 4h20v2.667H12V4z"/>
    </symbol>
    <symbol id="icon-comment" viewBox="0 0 32 32">
      <path d="M29.333 5.333c0-1.467-1.2-2.667-2.667-2.667H5.333a2.675 2.675 0 0 0-2.667 2.667v16C2.666 22.8 3.866 24 5.333 24H24l5.333 5.333v-24z"/>
    </symbol>
    <symbol id="icon-heart" viewBox="0 0 32 32">
      <path d="M2.667 11.2a7.207 7.207 0 0 1 4.537-6.69A7.193 7.193 0 0 1 10 4.001a7.973 7.973 0 0 1 6 2.666 7.983 7.983 0 0 1 6-2.666 7.19 7.19 0 0 1 5.177 2.061 7.192 7.192 0 0 1 2.156 5.138c0 7.141-8.505 12.533-13.333 16.8-4.817-4.303-13.333-9.653-13.333-16.8z"/>
    </symbol>
    <symbol id="icon-calendar" viewBox="0 0 32 32">
      <path d="M9.333 14.667H12v2.667H9.333v-2.667zm0 5.333H12v2.667H9.333V20zm5.334-5.333h2.667v2.667h-2.667v-2.667zm0 5.333h2.667v2.667h-2.667V20zM20 14.667h2.667v2.667H20v-2.667zM20 20h2.667v2.667H20V20z"/>
      <path d="M6.667 29.333h18.667a2.67 2.67 0 0 0 2.667-2.667V7.999a2.67 2.67 0 0 0-2.667-2.667h-2.667V2.665H20v2.667h-8V2.665H9.333v2.667H6.666a2.67 2.67 0 0 0-2.667 2.667v18.667a2.67 2.67 0 0 0 2.667 2.667zm18.666-18.666.001 16H6.666v-16h18.667z"/>
    </symbol>
    <symbol id="icon-plus" viewBox="0 0 32 32">
      <path d="M23.543 21.657 17.886 16l5.657-5.657-1.886-1.886L16 14.114l-5.657-5.657-1.886 1.886L14.114 16l-5.657 5.657 1.886 1.886L16 17.886l5.657 5.657 1.886-1.886z"/>
    </symbol>
  </defs>
</svg>
